<svg xmlns="http://www.w3.org/2000/svg" width="1964" height="332pt" viewBox="0 0 1473 332">
    <g class="graph" transform="translate(4 328)">
        <title>G</title>
        <path fill="#fff" d="M-4 4v-332h1472.74V4z"/>
        <g class="node">
            <title>:presenter:tag</title>
            <ellipse cx="754.88" cy="-306" fill="none" stroke="#000" rx="61.08" ry="18"/>
            <text xml:space="preserve" x="754.88" y="-300.95" font-family="Times,serif" font-size="14" text-anchor="middle">:presenter:tag</text>
        </g>
        <g class="node">
            <title>:compose:core</title>
            <ellipse cx="387.88" cy="-234" fill="none" stroke="#000" rx="65.17" ry="18"/>
            <text xml:space="preserve" x="387.88" y="-228.95" font-family="Times,serif" font-size="14" text-anchor="middle">:compose:core</text>
        </g>
        <g class="edge">
            <title>:presenter:tag-&gt;:compose:core</title>
            <path fill="none" stroke="#000" d="M704.62-295.41c-65.78 12.54-181.12 34.54-252.98 48.25"/>
            <path stroke="#000" d="m452.46-243.76-10.48-1.56 9.17-5.31z"/>
        </g>
        <g class="node">
            <title>:core:coroutines</title>
            <ellipse cx="826.88" cy="-234" fill="none" stroke="#000" rx="70.29" ry="18"/>
            <text xml:space="preserve" x="826.88" y="-228.95" font-family="Times,serif" font-size="14" text-anchor="middle">:core:coroutines</text>
        </g>
        <g class="edge">
            <title>:presenter:tag-&gt;:core:coroutines</title>
            <path fill="none" stroke="#000" d="M771.94-288.41c8.97 8.72 20.13 19.56 30.04 29.2"/>
            <path stroke="#000" d="m804.12-262.01 4.73 9.48-9.61-4.46z"/>
        </g>
        <g class="node">
            <title>:core:logger</title>
            <ellipse cx="970.88" cy="-234" fill="none" stroke="#000" rx="55.45" ry="18"/>
            <text xml:space="preserve" x="970.88" y="-228.95" font-family="Times,serif" font-size="14" text-anchor="middle">:core:logger</text>
        </g>
        <g class="edge">
            <title>:presenter:tag-&gt;:core:logger</title>
            <path fill="none" stroke="#000" d="M795-292c35.87 11.63 88.53 28.69 126.88 41.12"/>
            <path stroke="#000" d="m922.91-254.22 8.43 6.41-10.59.24z"/>
        </g>
        <g class="node">
            <title>:domain:tag</title>
            <ellipse cx="682.88" cy="-234" fill="none" stroke="#000" rx="55.45" ry="18"/>
            <text xml:space="preserve" x="682.88" y="-228.95" font-family="Times,serif" font-size="14" text-anchor="middle">:domain:tag</text>
        </g>
        <g class="edge">
            <title>:presenter:tag-&gt;:domain:tag</title>
            <path fill="none" stroke="red" stroke-width="2" d="M737.82-288.41c-8.97 8.72-20.13 19.56-30.04 29.2"/>
            <path fill="red" stroke="red" stroke-width="2" d="m711.6-258.04-9.61 4.46 4.73-9.48z"/>
        </g>
        <g class="node">
            <title>:library:compose-color</title>
            <ellipse cx="95.88" cy="-162" fill="none" stroke="#000" rx="95.88" ry="18"/>
            <text xml:space="preserve" x="95.88" y="-156.95" font-family="Times,serif" font-size="14" text-anchor="middle">:library:compose-color</text>
        </g>
        <g class="edge">
            <title>:presenter:tag-&gt;:library:compose-color</title>
            <path fill="none" stroke="#000" d="M694.37-302.85c-85.86 4.21-247.43 16.36-380.49 50.85-63.25 16.39-132.49 47.01-175.59 67.69"/>
            <path stroke="#000" d="m140.06-181.28-10.52 1.22 7.47-7.52z"/>
        </g>
        <g class="node">
            <title>:library:compose-ui</title>
            <ellipse cx="1128.88" cy="-234" fill="none" stroke="#000" rx="84.11" ry="18"/>
            <text xml:space="preserve" x="1128.88" y="-228.95" font-family="Times,serif" font-size="14" text-anchor="middle">:library:compose-ui</text>
        </g>
        <g class="edge">
            <title>:presenter:tag-&gt;:library:compose-ui</title>
            <path fill="none" stroke="#000" d="M805.32-295.56c64.57 12.09 176.92 33.11 250.77 46.94"/>
            <path stroke="#000" d="m1056.47-252.11 9.18 5.28-10.47 1.6z"/>
        </g>
        <g class="node">
            <title>:library:compose-foundation</title>
            <ellipse cx="1347.88" cy="-234" fill="none" stroke="#000" rx="116.86" ry="18"/>
            <text xml:space="preserve" x="1347.88" y="-228.95" font-family="Times,serif" font-size="14" text-anchor="middle">:library:compose-foundation</text>
        </g>
        <g class="edge">
            <title>:presenter:tag-&gt;:library:compose-foundation</title>
            <path fill="none" stroke="#000" d="M811.72-298.94c87.97 9.47 262.38 28.59 410.16 46.94 9.63 1.2 19.66 2.48 29.69 3.79"/>
            <path stroke="#000" d="m1251.89-251.69 9.46 4.77-10.37 2.17z"/>
        </g>
        <g class="node">
            <title>:library:paging-compose</title>
            <ellipse cx="533.88" cy="-162" fill="none" stroke="#000" rx="102.02" ry="18"/>
            <text xml:space="preserve" x="533.88" y="-156.95" font-family="Times,serif" font-size="14" text-anchor="middle">:library:paging-compose</text>
        </g>
        <g class="edge">
            <title>:presenter:tag-&gt;:library:paging-compose</title>
            <path fill="none" stroke="#000" d="M710.88-293.23c-27.85 8.7-63.79 22.34-92 41.23-25.63 17.16-49.39 43.27-65.23 62.78"/>
            <path stroke="#000" d="m556.43-187.09-8.96 5.66 3.47-10.01z"/>
        </g>
        <g class="edge">
            <title>:compose:core-&gt;:library:compose-color</title>
            <path fill="none" stroke="#000" d="M339.66-221.44c-47.71 11.44-121.21 29.06-175.03 41.96"/>
            <path stroke="#000" d="m165.47-176.08-10.54-1.08 8.91-5.73z"/>
        </g>
        <g class="edge">
            <title>:compose:core-&gt;:library:paging-compose</title>
            <path fill="none" stroke="#000" d="M419.56-217.81c20.42 9.79 47.26 22.66 69.81 33.47"/>
            <path stroke="#000" d="m490.85-187.51 7.5 7.48-10.53-1.17z"/>
        </g>
        <g class="node">
            <title>:library:kotlinx-datetime</title>
            <ellipse cx="311.88" cy="-162" fill="none" stroke="#000" rx="102.02" ry="18"/>
            <text xml:space="preserve" x="311.88" y="-156.95" font-family="Times,serif" font-size="14" text-anchor="middle">:library:kotlinx-datetime</text>
        </g>
        <g class="edge">
            <title>:compose:core-&gt;:library:kotlinx-datetime</title>
            <path fill="none" stroke="#000" d="M369.87-216.41c-9.33 8.59-20.9 19.25-31.25 28.78"/>
            <path stroke="#000" d="m341.13-185.18-9.73 4.2 4.99-9.35z"/>
        </g>
        <g class="node">
            <title>:core:entity</title>
            <ellipse cx="1033.88" cy="-18" fill="none" stroke="#000" rx="52.89" ry="18"/>
            <text xml:space="preserve" x="1033.88" y="-12.95" font-family="Times,serif" font-size="14" text-anchor="middle">:core:entity</text>
        </g>
        <g class="edge">
            <title>:domain:tag-&gt;:core:entity</title>
            <path fill="none" stroke="#000" d="M724.79-222.03c58.65 15.37 158.22 41.51 159.09 42.03 58.13 34.79 107.7 98.63 132.68 134.59"/>
            <path stroke="#000" d="m1019.34-47.54 2.74 10.23-8.52-6.29z"/>
        </g>
        <g class="node">
            <title>:library:paging-common</title>
            <ellipse cx="588.88" cy="-18" fill="none" stroke="#000" rx="102.02" ry="18"/>
            <text xml:space="preserve" x="588.88" y="-12.95" font-family="Times,serif" font-size="14" text-anchor="middle">:library:paging-common</text>
        </g>
        <g class="edge">
            <title>:domain:tag-&gt;:library:paging-common</title>
            <path fill="none" stroke="#000" d="M675.68-215.9c-7.57 17.95-19.89 46.96-30.8 71.9-14.7 33.59-32 72.06-43.45 97.35"/>
            <path stroke="#000" d="m604.71-45.39-7.32 7.66.94-10.55z"/>
        </g>
        <g class="node">
            <title>:library:kotlinx-coroutines-core</title>
            <ellipse cx="835.88" cy="-18" fill="none" stroke="#000" rx="127.1" ry="18"/>
            <text xml:space="preserve" x="835.88" y="-12.95" font-family="Times,serif" font-size="14" text-anchor="middle">:library:kotlinx-coroutines-core</text>
        </g>
        <g class="edge">
            <title>:domain:tag-&gt;:library:kotlinx-coroutines-core</title>
            <path fill="none" stroke="#000" d="M724.58-221.83c51.19 13.9 131.8 36.45 136.3 41.83 30.86 36.94 21.23 61.72 8 108-2.67 9.34-7.51 18.63-12.68 26.76"/>
            <path stroke="#000" d="m859.25-43.49-8.53 6.28 2.75-10.23z"/>
        </g>
        <g class="node">
            <title>:domain:account</title>
            <ellipse cx="770.88" cy="-90" fill="none" stroke="#000" rx="72.85" ry="18"/>
            <text xml:space="preserve" x="770.88" y="-84.95" font-family="Times,serif" font-size="14" text-anchor="middle">:domain:account</text>
        </g>
        <g class="edge">
            <title>:domain:tag-&gt;:domain:account</title>
            <path fill="none" stroke="#000" d="M688.22-215.71c6.21 18.62 17.56 48.66 32.66 71.71 6.55 10 15.08 19.84 23.23 28.27"/>
            <path stroke="#000" d="m746.37-118.42 4.61 9.54-9.55-4.58z"/>
        </g>
        <g class="node">
            <title>:domain:sync</title>
            <ellipse cx="790.88" cy="-162" fill="none" stroke="#000" rx="61.08" ry="18"/>
            <text xml:space="preserve" x="790.88" y="-156.95" font-family="Times,serif" font-size="14" text-anchor="middle">:domain:sync</text>
        </g>
        <g class="edge">
            <title>:domain:tag-&gt;:domain:sync</title>
            <path fill="none" stroke="red" stroke-width="2" d="M706.85-217.46c14.85 9.62 34.16 22.14 50.52 32.74"/>
            <path fill="red" stroke="red" stroke-width="2" d="m757.58-188.76 6.48 8.38-10.29-2.5z"/>
        </g>
        <g class="edge">
            <title>:library:paging-compose-&gt;:library:paging-common</title>
            <path fill="none" stroke="#000" d="m540.62-143.59 37.55 96.94"/>
            <path stroke="#000" d="m581.36-48.11.34 10.59-6.87-8.06z"/>
        </g>
        <g class="edge">
            <title>:domain:account-&gt;:core:entity</title>
            <path fill="none" stroke="red" stroke-width="2" d="M819.65-76.28C860.38-65.63 919.95-49.96 971.88-36c3.56.96 7.23 1.95 10.92 2.95"/>
            <path fill="red" stroke="red" stroke-width="2" d="m982.22-36.83 8.73 6-10.57.75z"/>
        </g>
        <g class="edge">
            <title>:domain:account-&gt;:library:paging-common</title>
            <path fill="none" stroke="#000" d="M732.73-74.33c-26.74 10.29-62.79 24.15-92.11 35.43"/>
            <path stroke="#000" d="m642.15-35.74-10.59.32 8.08-6.85z"/>
        </g>
        <g class="edge">
            <title>:domain:account-&gt;:library:kotlinx-coroutines-core</title>
            <path fill="none" stroke="#000" d="M786.61-72.05c7.63 8.21 16.96 18.26 25.44 27.39"/>
            <path stroke="#000" d="m814.57-47.09 4.24 9.71-9.37-4.95z"/>
        </g>
        <g class="edge">
            <title>:domain:sync-&gt;:core:entity</title>
            <path fill="none" stroke="#000" d="M817.35-145.53C861.22-119.9 949.03-68.58 998.28-39.8"/>
            <path stroke="#000" d="m1000-42.85 6.87 8.07-10.4-2.03z"/>
        </g>
        <g class="edge">
            <title>:domain:sync-&gt;:library:paging-common</title>
            <path fill="none" stroke="#000" d="M758-146.48c-20.59 9.71-47.26 23.42-69.12 38.48-15.09 10.39-49.51 41.73-73.74 64.28"/>
            <path stroke="#000" d="m617.53-41.16-9.69 4.27 4.92-9.39z"/>
        </g>
        <g class="edge">
            <title>:domain:sync-&gt;:library:kotlinx-coroutines-core</title>
            <path fill="none" stroke="#000" d="M818.11-145.54c13.12 9.08 27.54 21.85 34.77 37.54 8.94 19.4 3.61 43.27-3.37 61.4"/>
            <path stroke="#000" d="m852.79-45.37-7.13 7.83.69-10.57z"/>
        </g>
        <g class="edge">
            <title>:domain:sync-&gt;:domain:account</title>
            <path fill="none" stroke="red" stroke-width="2" d="M785.93-143.7c-2.13 7.46-4.67 16.38-7.06 24.73"/>
            <path fill="red" stroke="red" stroke-width="2" d="m782.71-119.67-6.11 8.66-.62-10.58z"/>
        </g>
    </g>
</svg>
