<svg xmlns="http://www.w3.org/2000/svg" width="2597pt" height="404pt" viewBox="0 0 2597 404">
    <g class="graph" transform="translate(4 400)">
        <title>G</title>
        <path fill="#fff" d="M-4 4v-404h2596.77V4z"/>
        <g class="node">
            <title>:feature:tag</title>
            <ellipse cx="747.1" cy="-378" fill="none" stroke="#000" rx="52.89" ry="18"/>
            <text xml:space="preserve" x="747.1" y="-372.95" font-family="Times,serif" font-size="14" text-anchor="middle">:feature:tag</text>
        </g>
        <g class="node">
            <title>:compose:core</title>
            <ellipse cx="1406.1" cy="-162" fill="none" stroke="#000" rx="65.17" ry="18"/>
            <text xml:space="preserve" x="1406.1" y="-156.95" font-family="Times,serif" font-size="14" text-anchor="middle">:compose:core</text>
        </g>
        <g class="edge">
            <title>:feature:tag-&gt;:compose:core</title>
            <path fill="none" stroke="#000" d="M800.1-377.03c263.13.38 1420.52 8.71 1524 125.03 10.63 11.95 10.98 24.36 0 36-28.72 30.42-626.04 46.56-841.42 51.41"/>
            <path stroke="#000" d="m1482.77-161.09-10.07-3.28 9.92-3.72z"/>
        </g>
        <g class="node">
            <title>:core:logger</title>
            <ellipse cx="617.1" cy="-234" fill="none" stroke="#000" rx="55.45" ry="18"/>
            <text xml:space="preserve" x="617.1" y="-228.95" font-family="Times,serif" font-size="14" text-anchor="middle">:core:logger</text>
        </g>
        <g class="edge">
            <title>:feature:tag-&gt;:core:logger</title>
            <path fill="none" stroke="#000" d="M722.82-361.58c-14.26 9.75-32.1 23.19-45.72 37.58-17.86 18.87-34.06 43.58-45.12 62.18"/>
            <path stroke="#000" d="m635.05-260.14-8.04 6.89 1.99-10.4z"/>
        </g>
        <g class="node">
            <title>:core:navigation</title>
            <ellipse cx="2244.1" cy="-234" fill="none" stroke="#000" rx="70.8" ry="18"/>
            <text xml:space="preserve" x="2244.1" y="-228.95" font-family="Times,serif" font-size="14" text-anchor="middle">:core:navigation</text>
        </g>
        <g class="edge">
            <title>:feature:tag-&gt;:core:navigation</title>
            <path fill="none" stroke="#000" d="M799.27-374.51c185.76 9.3 831.99 45.55 1359.83 122.51 6.94 1.01 14.17 2.22 21.35 3.52"/>
            <path stroke="#000" d="m2180.98-251.95 9.18 5.28-10.47 1.6z"/>
        </g>
        <g class="node">
            <title>:library:kotlinx-coroutines-core</title>
            <ellipse cx="127.1" cy="-18" fill="none" stroke="#000" rx="127.1" ry="18"/>
            <text xml:space="preserve" x="127.1" y="-12.95" font-family="Times,serif" font-size="14" text-anchor="middle">:library:kotlinx-coroutines-core</text>
        </g>
        <g class="edge">
            <title>:feature:tag-&gt;:library:kotlinx-coroutines-core</title>
            <path fill="none" stroke="#000" d="M693.93-377.44C531.23-377.39 51.1-366.11 51.1-235v74c0 44.97 29.99 89.48 52.29 116.36"/>
            <path stroke="#000" d="m105.77-47.25 3.85 9.87-9.16-5.31z"/>
        </g>
        <g class="node">
            <title>:library:lifecycle-common</title>
            <ellipse cx="2480.1" cy="-306" fill="none" stroke="#000" rx="108.67" ry="18"/>
            <text xml:space="preserve" x="2480.1" y="-300.95" font-family="Times,serif" font-size="14" text-anchor="middle">:library:lifecycle-common</text>
        </g>
        <g class="edge">
            <title>:feature:tag-&gt;:library:lifecycle-common</title>
            <path fill="none" stroke="#000" d="M800.38-377.26c202.93-.58 946.82 1.22 1556.72 53.26 11.03.94 22.59 2.19 34.02 3.58"/>
            <path stroke="#000" d="m2391.5-323.9 9.48 4.73-10.36 2.22z"/>
        </g>
        <g class="node">
            <title>:domain:memo</title>
            <ellipse cx="400.1" cy="-234" fill="none" stroke="#000" rx="68.24" ry="18"/>
            <text xml:space="preserve" x="400.1" y="-228.95" font-family="Times,serif" font-size="14" text-anchor="middle">:domain:memo</text>
        </g>
        <g class="edge">
            <title>:feature:tag-&gt;:domain:memo</title>
            <path fill="none" stroke="#000" d="M714.14-363.51c-62.11 25.41-196.63 80.46-267.77 109.58"/>
            <path stroke="#000" d="m447.91-250.78-10.58.54 7.93-7.02z"/>
        </g>
        <g class="node">
            <title>:domain:tag</title>
            <ellipse cx="258.1" cy="-234" fill="none" stroke="#000" rx="55.45" ry="18"/>
            <text xml:space="preserve" x="258.1" y="-228.95" font-family="Times,serif" font-size="14" text-anchor="middle">:domain:tag</text>
        </g>
        <g class="edge">
            <title>:feature:tag-&gt;:domain:tag</title>
            <path fill="none" stroke="#000" d="M703.2-367.48c-44.41 9.9-114.91 26.31-175.1 43.48-79.04 22.55-169.5 53.42-223.08 72.25"/>
            <path stroke="#000" d="m306.51-248.57-10.59.03 8.27-6.63z"/>
        </g>
        <g class="node">
            <title>:presenter:memo</title>
            <ellipse cx="1297.1" cy="-306" fill="none" stroke="#000" rx="73.87" ry="18"/>
            <text xml:space="preserve" x="1297.1" y="-300.95" font-family="Times,serif" font-size="14" text-anchor="middle">:presenter:memo</text>
        </g>
        <g class="edge">
            <title>:feature:tag-&gt;:presenter:memo</title>
            <path fill="none" stroke="red" stroke-width="2" d="M795.91-370.79c96.3 12.26 311.34 39.63 425.93 54.21"/>
            <path fill="red" stroke="red" stroke-width="2" d="m1220.46-320.28 9.48 4.73-10.36 2.21z"/>
        </g>
        <g class="node">
            <title>:presenter:tag</title>
            <ellipse cx="747.1" cy="-306" fill="none" stroke="#000" rx="61.08" ry="18"/>
            <text xml:space="preserve" x="747.1" y="-300.95" font-family="Times,serif" font-size="14" text-anchor="middle">:presenter:tag</text>
        </g>
        <g class="edge">
            <title>:feature:tag-&gt;:presenter:tag</title>
            <path fill="none" stroke="#000" d="M747.1-359.7v24.16"/>
            <path stroke="#000" d="m750.6-335.62-3.5 10-3.5-10z"/>
        </g>
        <g class="node">
            <title>:library:compose-color</title>
            <ellipse cx="1659.1" cy="-90" fill="none" stroke="#000" rx="95.88" ry="18"/>
            <text xml:space="preserve" x="1659.1" y="-84.95" font-family="Times,serif" font-size="14" text-anchor="middle">:library:compose-color</text>
        </g>
        <g class="edge">
            <title>:compose:core-&gt;:library:compose-color</title>
            <path fill="none" stroke="#000" d="M1451.04-148.57c40.27 11.15 99.77 27.61 144.84 40.08"/>
            <path stroke="#000" d="m1596.55-111.94 8.7 6.04-10.57.71z"/>
        </g>
        <g class="node">
            <title>:library:kotlinx-datetime</title>
            <ellipse cx="1443.1" cy="-90" fill="none" stroke="#000" rx="102.02" ry="18"/>
            <text xml:space="preserve" x="1443.1" y="-84.95" font-family="Times,serif" font-size="14" text-anchor="middle">:library:kotlinx-datetime</text>
        </g>
        <g class="edge">
            <title>:compose:core-&gt;:library:kotlinx-datetime</title>
            <path fill="none" stroke="#000" d="M1415.25-143.7c4.07 7.72 8.97 16.99 13.52 25.59"/>
            <path stroke="#000" d="m1431.77-119.92 1.58 10.48-7.77-7.21z"/>
        </g>
        <g class="node">
            <title>:library:paging-compose</title>
            <ellipse cx="957.1" cy="-90" fill="none" stroke="#000" rx="102.02" ry="18"/>
            <text xml:space="preserve" x="957.1" y="-84.95" font-family="Times,serif" font-size="14" text-anchor="middle">:library:paging-compose</text>
        </g>
        <g class="edge">
            <title>:compose:core-&gt;:library:paging-compose</title>
            <path fill="none" stroke="red" stroke-width="2" d="M1350.59-152.35c-77.06 12.02-217.19 33.86-307.75 47.98"/>
            <path fill="red" stroke="red" stroke-width="2" d="m1044.91-101.15-10.42-1.92 9.34-4.99z"/>
        </g>
        <g class="edge">
            <title>:domain:memo-&gt;:library:kotlinx-coroutines-core</title>
            <path fill="none" stroke="#000" d="M354.06-220.34c-28.51 8.95-65.24 22.52-94.96 40.34-41.6 24.94-51.47 34.32-82 72-15.32 18.9-28.59 43.13-37.6 61.53"/>
            <path stroke="#000" d="m142.69-45.02-7.46 7.52 1.14-10.53z"/>
        </g>
        <g class="node">
            <title>:core:entity</title>
            <ellipse cx="552.1" cy="-18" fill="none" stroke="#000" rx="52.89" ry="18"/>
            <text xml:space="preserve" x="552.1" y="-12.95" font-family="Times,serif" font-size="14" text-anchor="middle">:core:entity</text>
        </g>
        <g class="edge">
            <title>:domain:memo-&gt;:core:entity</title>
            <path fill="none" stroke="#000" d="M412.28-215.85c26.53 37.35 89.65 126.22 121.2 170.64"/>
            <path stroke="#000" d="m536.26-47.35 2.93 10.18-8.64-6.13z"/>
        </g>
        <g class="node">
            <title>:library:paging-common</title>
            <ellipse cx="379.1" cy="-18" fill="none" stroke="#000" rx="102.02" ry="18"/>
            <text xml:space="preserve" x="379.1" y="-12.95" font-family="Times,serif" font-size="14" text-anchor="middle">:library:paging-common</text>
        </g>
        <g class="edge">
            <title>:domain:memo-&gt;:library:paging-common</title>
            <path fill="none" stroke="#000" d="M407.58-215.7c3.99 10.18 8.49 23.43 10.52 35.7 7.9 47.81.03 61.93-15 108-2.76 8.45-6.45 17.35-10.12 25.4"/>
            <path stroke="#000" d="m396.18-45.19-7.44 7.54 1.12-10.53z"/>
        </g>
        <g class="node">
            <title>:domain:account</title>
            <ellipse cx="304.1" cy="-90" fill="none" stroke="#000" rx="72.85" ry="18"/>
            <text xml:space="preserve" x="304.1" y="-84.95" font-family="Times,serif" font-size="14" text-anchor="middle">:domain:account</text>
        </g>
        <g class="edge">
            <title>:domain:memo-&gt;:domain:account</title>
            <path fill="none" stroke="#000" d="M404.75-215.56c4.03 19.01 7.38 49.65-5.65 71.56-9.11 15.31-24.4 26.54-40.09 34.61"/>
            <path stroke="#000" d="m360.61-106.28-10.53 1.1 7.55-7.43z"/>
        </g>
        <g class="node">
            <title>:domain:sync</title>
            <ellipse cx="329.1" cy="-162" fill="none" stroke="#000" rx="61.08" ry="18"/>
            <text xml:space="preserve" x="329.1" y="-156.95" font-family="Times,serif" font-size="14" text-anchor="middle">:domain:sync</text>
        </g>
        <g class="edge">
            <title>:domain:memo-&gt;:domain:sync</title>
            <path fill="none" stroke="#000" d="M383.27-216.41c-8.75 8.63-19.62 19.35-29.32 28.91"/>
            <path stroke="#000" d="m356.46-185.06-9.58 4.53 4.67-9.52z"/>
        </g>
        <g class="edge">
            <title>:domain:tag-&gt;:library:kotlinx-coroutines-core</title>
            <path fill="none" stroke="#000" d="M205.08-228.48c-32.35 5.81-71.32 18.94-91.98 48.48-27.71 39.63-11.76 98.87 1.62 133.36"/>
            <path stroke="#000" d="m117.8-48.36.54 10.59-7.02-7.94z"/>
        </g>
        <g class="edge">
            <title>:domain:tag-&gt;:core:entity</title>
            <path fill="none" stroke="#000" d="M301.71-222.53c29.27 8.39 67.75 22.17 97.39 42.53 52.94 36.36 51.1 62.08 96 108 9.55 9.76 20.44 20.08 30.13 28.99"/>
            <path stroke="#000" d="m527.56-45.62 5.03 9.32-9.75-4.15z"/>
        </g>
        <g class="edge">
            <title>:domain:tag-&gt;:library:paging-common</title>
            <path fill="none" stroke="#000" d="M246.46-216.22C226.31-184.9 190.03-116.67 222.1-72c14.47 20.16 37.03 32.76 60.57 40.59"/>
            <path stroke="#000" d="m283.52-34.81 8.56 6.24-10.58.46z"/>
        </g>
        <g class="edge">
            <title>:domain:tag-&gt;:domain:account</title>
            <path fill="none" stroke="#000" d="M254.91-215.64c-2.62 18.42-4.63 48.05 4.19 71.64 3.85 10.3 10.65 19.97 17.82 28.17"/>
            <path stroke="#000" d="m279.37-118.34 4.31 9.68-9.4-4.87z"/>
        </g>
        <g class="edge">
            <title>:domain:tag-&gt;:domain:sync</title>
            <path fill="none" stroke="#000" d="M274.93-216.41c8.75 8.63 19.62 19.35 29.32 28.91"/>
            <path stroke="#000" d="m306.65-190.05 4.67 9.52-9.58-4.53z"/>
        </g>
        <g class="edge">
            <title>:presenter:memo-&gt;:compose:core</title>
            <path fill="none" stroke="#000" d="M1357.58-295.47c47.35 8.85 107.62 23.64 122.52 43.47 9.61 12.79 7.31 21.77 0 36-6.91 13.44-18.98 24.24-31.39 32.49"/>
            <path stroke="#000" d="m1450.87-180.74-10.35 2.25 6.69-8.21z"/>
        </g>
        <g class="edge">
            <title>:presenter:memo-&gt;:core:logger</title>
            <path fill="none" stroke="#000" d="M1224.16-302.72c-115.68 4.51-348.01 17.23-542.06 50.72-4.4.76-8.94 1.67-13.47 2.67"/>
            <path stroke="#000" d="m669.44-245.92-10.53-1.11 8.93-5.71z"/>
        </g>
        <g class="edge">
            <title>:presenter:memo-&gt;:core:navigation</title>
            <path fill="none" stroke="#000" d="M1370.93-303.84c149.41 3.09 498.05 14.09 788.17 51.84 7.13.93 14.57 2.1 21.94 3.4"/>
            <path stroke="#000" d="m2181.45-252.08 9.2 5.25-10.47 1.63z"/>
        </g>
        <g class="edge">
            <title>:presenter:memo-&gt;:domain:memo</title>
            <path fill="none" stroke="#000" d="M1225.72-300.86C1093.1-292.95 799.73-274.48 553.1-252c-26.31 2.4-55.12 5.48-80.57 8.36"/>
            <path stroke="#000" d="m472.93-240.16-10.33-2.35 9.54-4.61z"/>
        </g>
        <g class="edge">
            <title>:presenter:memo-&gt;:library:compose-color</title>
            <path fill="none" stroke="#000" d="M1367.19-299.86c47.85 3.47 112.7 8.09 169.91 11.86 65.42 4.32 544.07-11.76 589 36 110.29 117.24-192.16 149.11-361.43 157.77"/>
            <path stroke="#000" d="m1764.89-90.74-10.16-3 9.82-3.99z"/>
        </g>
        <g class="edge">
            <title>:presenter:memo-&gt;:library:paging-compose</title>
            <path fill="none" stroke="#000" d="M1298-287.85c.11 19.62-2.7 51.63-19.9 71.85-57.22 67.27-155.24 98.52-227.95 112.93"/>
            <path stroke="#000" d="m1051.13-99.69-10.48-1.57 9.17-5.31z"/>
        </g>
        <g class="node">
            <title>:compose:memo</title>
            <ellipse cx="1398.1" cy="-234" fill="none" stroke="#000" rx="73.36" ry="18"/>
            <text xml:space="preserve" x="1398.1" y="-228.95" font-family="Times,serif" font-size="14" text-anchor="middle">:compose:memo</text>
        </g>
        <g class="edge">
            <title>:presenter:memo-&gt;:compose:memo</title>
            <path fill="none" stroke="red" stroke-width="2" d="M1320.78-288.59c13.3 9.22 30.09 20.85 44.62 30.93"/>
            <path fill="red" stroke="red" stroke-width="2" d="m1365.85-261.61 6.23 8.58-10.21-2.82z"/>
        </g>
        <g class="node">
            <title>:core:coroutines</title>
            <ellipse cx="761.1" cy="-234" fill="none" stroke="#000" rx="70.29" ry="18"/>
            <text xml:space="preserve" x="761.1" y="-228.95" font-family="Times,serif" font-size="14" text-anchor="middle">:core:coroutines</text>
        </g>
        <g class="edge">
            <title>:presenter:memo-&gt;:core:coroutines</title>
            <path fill="none" stroke="#000" d="M1228.29-299.11c-89.69 8.16-251.27 24.49-388.19 47.11-5.57.92-11.34 1.97-17.1 3.09"/>
            <path stroke="#000" d="M823.93-245.53 813.44-247l9.12-5.39z"/>
        </g>
        <g class="node">
            <title>:library:compose-ui</title>
            <ellipse cx="933.1" cy="-234" fill="none" stroke="#000" rx="84.11" ry="18"/>
            <text xml:space="preserve" x="933.1" y="-228.95" font-family="Times,serif" font-size="14" text-anchor="middle">:library:compose-ui</text>
        </g>
        <g class="edge">
            <title>:presenter:memo-&gt;:library:compose-ui</title>
            <path fill="none" stroke="#000" d="M1240.62-294.14c-63.27 12.17-166.01 31.93-235.13 45.22"/>
            <path stroke="#000" d="m1006.24-245.5-10.48-1.55 9.15-5.32z"/>
        </g>
        <g class="node">
            <title>:library:compose-foundation</title>
            <ellipse cx="1152.1" cy="-234" fill="none" stroke="#000" rx="116.86" ry="18"/>
            <text xml:space="preserve" x="1152.1" y="-228.95" font-family="Times,serif" font-size="14" text-anchor="middle">:library:compose-foundation</text>
        </g>
        <g class="edge">
            <title>:presenter:memo-&gt;:library:compose-foundation</title>
            <path fill="none" stroke="#000" d="M1264.92-289.46c-20.1 9.7-46.25 22.32-68.32 32.98"/>
            <path stroke="#000" d="m1198.36-253.44-10.53 1.19 7.48-7.5z"/>
        </g>
        <g class="node">
            <title>:library:navigation3-compat</title>
            <ellipse cx="1680.1" cy="-234" fill="none" stroke="#000" rx="114.82" ry="18"/>
            <text xml:space="preserve" x="1680.1" y="-228.95" font-family="Times,serif" font-size="14" text-anchor="middle">:library:navigation3-compat</text>
        </g>
        <g class="edge">
            <title>:presenter:memo-&gt;:library:navigation3-compat</title>
            <path fill="none" stroke="#000" d="M1354.85-294.44c64.21 11.73 168.47 30.79 241.6 44.15"/>
            <path stroke="#000" d="m1596.76-253.79 9.2 5.24-10.46 1.65z"/>
        </g>
        <g class="node">
            <title>:library:material3-adaptive-navigation</title>
            <ellipse cx="1965.1" cy="-234" fill="none" stroke="#000" rx="152.18" ry="18"/>
            <text xml:space="preserve" x="1965.1" y="-228.95" font-family="Times,serif" font-size="14" text-anchor="middle">:library:material3-adaptive-navigation</text>
        </g>
        <g class="edge">
            <title>:presenter:memo-&gt;:library:material3-adaptive-navigation</title>
            <path fill="none" stroke="#000" d="M1363.94-298.03c96.99 10.11 282.39 29.45 440.16 46.03 12.67 1.33 25.89 2.72 39.08 4.11"/>
            <path stroke="#000" d="m1843.16-251.41 9.58 4.53-10.31 2.43z"/>
        </g>
        <g class="edge">
            <title>:presenter:tag-&gt;:compose:core</title>
            <path fill="none" stroke="#000" d="M690.86-298.55c-72.12 10.37-182.8 34.62-137.76 82.55 26.41 28.1 572.72 45.52 776.9 51.07"/>
            <path stroke="#000" d="m1329.79-168.44 9.9 3.77-10.09 3.23z"/>
        </g>
        <g class="edge">
            <title>:presenter:tag-&gt;:core:logger</title>
            <path fill="none" stroke="#000" d="M718.57-289.64c-18.8 10.12-43.61 23.49-64 34.46"/>
            <path stroke="#000" d="M656.47-252.22 646-250.56l7.15-7.83z"/>
        </g>
        <g class="edge">
            <title>:presenter:tag-&gt;:domain:tag</title>
            <path fill="none" stroke="#000" d="M688.77-300.15c-82.1 7.37-236.18 23.24-365.67 48.15-4.32.83-8.78 1.79-13.25 2.81"/>
            <path stroke="#000" d="m310.84-245.83-10.54-1.05 8.9-5.75z"/>
        </g>
        <g class="edge">
            <title>:presenter:tag-&gt;:library:compose-color</title>
            <path fill="none" stroke="#000" d="M807.71-302.87c164.53 6.09 611.27 24.86 672.39 50.87 69.49 29.57 130.06 97.61 159.68 135.07"/>
            <path stroke="#000" d="m1642.34-119.34 3.36 10.04-8.89-5.75z"/>
        </g>
        <g class="edge">
            <title>:presenter:tag-&gt;:library:paging-compose</title>
            <path fill="none" stroke="#000" d="M688.36-300.77c-75.13 7.75-190.84 28.93-149.26 84.77 39.75 53.37 221.86 92.37 332.18 111.58"/>
            <path stroke="#000" d="m871.63-107.91 9.26 5.14-10.45 1.75z"/>
        </g>
        <g class="edge">
            <title>:presenter:tag-&gt;:core:coroutines</title>
            <path fill="none" stroke="#000" d="M750.56-287.7c1.47 7.38 3.23 16.18 4.89 24.45"/>
            <path stroke="#000" d="m758.85-264.08-1.47 10.49-5.39-9.12z"/>
        </g>
        <g class="edge">
            <title>:presenter:tag-&gt;:library:compose-ui</title>
            <path fill="none" stroke="#000" d="M783.85-291.17c28.12 10.59 67.25 25.31 98.38 37.03"/>
            <path stroke="#000" d="m883.34-257.47 8.12 6.8-10.59-.25z"/>
        </g>
        <g class="edge">
            <title>:presenter:tag-&gt;:library:compose-foundation</title>
            <path fill="none" stroke="#000" d="M798.8-296.06c67.21 11.61 185.55 32.07 266.61 46.08"/>
            <path stroke="#000" d="m1065.84-253.46 9.26 5.15-10.45 1.75z"/>
        </g>
        <g class="edge">
            <title>:library:paging-compose-&gt;:library:paging-common</title>
            <path fill="none" stroke="red" stroke-width="2" d="M870.47-80.19C776.62-70.41 622.54-53.65 490.1-36c-8.33 1.11-17 2.33-25.67 3.59"/>
            <path fill="red" stroke="red" stroke-width="2" d="m466.48-29.18-10.41-2 9.39-4.92z"/>
        </g>
        <g class="edge">
            <title>:domain:account-&gt;:library:kotlinx-coroutines-core</title>
            <path fill="none" stroke="#000" d="M266.56-74.15c-25.46 10.07-59.47 23.51-87.52 34.61"/>
            <path stroke="#000" d="m180.6-36.39-10.59.42 8.01-6.93z"/>
        </g>
        <g class="edge">
            <title>:domain:account-&gt;:core:entity</title>
            <path fill="none" stroke="#000" d="M350.75-75.83c42.85 12.09 106.22 29.98 150.39 42.45"/>
            <path stroke="#000" d="m502.08-36.75 8.67 6.08-10.57.65z"/>
        </g>
        <g class="edge">
            <title>:domain:account-&gt;:library:paging-common</title>
            <path fill="none" stroke="#000" d="M321.87-72.41c9.21 8.59 20.63 19.25 30.84 28.78"/>
            <path stroke="#000" d="m354.9-46.37 4.93 9.38-9.7-4.26z"/>
        </g>
        <g class="edge">
            <title>:domain:sync-&gt;:library:kotlinx-coroutines-core</title>
            <path fill="none" stroke="#000" d="M294.42-146.93c-21.67 9.53-49.66 23.22-72.32 38.93-26.73 18.54-53.44 44.37-71.7 63.43"/>
            <path stroke="#000" d="m153.08-42.31-9.4 4.87 4.31-9.68z"/>
        </g>
        <g class="edge">
            <title>:domain:sync-&gt;:core:entity</title>
            <path fill="none" stroke="#000" d="M353.46-145.13C380.97-127.24 427.13-97.35 467.1-72c16.62 10.54 35.17 22.13 50.68 31.77"/>
            <path stroke="#000" d="m519.55-43.25 6.65 8.24-10.34-2.3z"/>
        </g>
        <g class="edge">
            <title>:domain:sync-&gt;:library:paging-common</title>
            <path fill="none" stroke="#000" d="M353.89-145.29c12.15 9.22 25.57 22.05 32.21 37.29 8.33 19.12 5.97 42.72 1.86 60.81"/>
            <path stroke="#000" d="m391.38-46.45-5.9 8.79-.87-10.56z"/>
        </g>
        <g class="edge">
            <title>:domain:sync-&gt;:domain:account</title>
            <path fill="none" stroke="#000" d="M322.92-143.7c-2.7 7.55-5.92 16.58-8.94 25.02"/>
            <path stroke="#000" d="m317.38-117.77-6.66 8.24.06-10.59z"/>
        </g>
        <g class="edge">
            <title>:compose:memo-&gt;:compose:core</title>
            <path fill="none" stroke="red" stroke-width="2" d="M1400.08-215.7c.83 7.29 1.82 15.97 2.76 24.16"/>
            <path fill="red" stroke="red" stroke-width="2" d="m1406.14-193.44-2.34 10.33-4.61-9.54z"/>
        </g>
        <g class="edge">
            <title>:compose:memo-&gt;:core:entity</title>
            <path fill="none" stroke="#000" d="M1367.91-217.24c-34.75 18.06-93.62 48.34-144.81 73.24-68.31 33.22-81.77 51.84-155 72-158.27 43.56-352.76 51.96-451.65 53.18"/>
            <path stroke="#000" d="m616.71-15.32-10.04-3.4 9.97-3.6z"/>
        </g>
    </g>
</svg>
