<svg xmlns="http://www.w3.org/2000/svg" width="1799pt" height="404pt" viewBox="0 0 1799 404">
    <g class="graph" transform="translate(4 400)">
        <title>G</title>
        <path fill="#fff" d="M-4 4v-404h1799V4z"/>
        <g class="node">
            <title>:data:calendar</title>
            <ellipse cx="722.9" cy="-378" fill="none" stroke="#000" rx="62.61" ry="18"/>
            <text xml:space="preserve" x="722.9" y="-372.95" font-family="Times,serif" font-size="14" text-anchor="middle">:data:calendar</text>
        </g>
        <g class="node">
            <title>:core:mapper</title>
            <ellipse cx="722.9" cy="-306" fill="none" stroke="#000" rx="60.05" ry="18"/>
            <text xml:space="preserve" x="722.9" y="-300.95" font-family="Times,serif" font-size="14" text-anchor="middle">:core:mapper</text>
        </g>
        <g class="edge">
            <title>:data:calendar-&gt;:core:mapper</title>
            <path fill="none" stroke="red" stroke-width="2" d="M722.9-359.7v24.16"/>
            <path fill="red" stroke="red" stroke-width="2" d="m726.4-337.13-3.5 10-3.5-10z"/>
        </g>
        <g class="node">
            <title>:core:database</title>
            <ellipse cx="96.9" cy="-234" fill="none" stroke="#000" rx="63.63" ry="18"/>
            <text xml:space="preserve" x="96.9" y="-228.95" font-family="Times,serif" font-size="14" text-anchor="middle">:core:database</text>
        </g>
        <g class="edge">
            <title>:data:calendar-&gt;:core:database</title>
            <path fill="none" stroke="#000" d="M674.43-366.15C578.2-344.6 356.26-294.76 169.9-252c-4.56 1.05-9.29 2.14-14.04 3.24"/>
            <path stroke="#000" d="m156.8-245.39-10.53-1.15 8.95-5.67z"/>
        </g>
        <g class="node">
            <title>:domain:calendar</title>
            <ellipse cx="1382.9" cy="-306" fill="none" stroke="#000" rx="75.41" ry="18"/>
            <text xml:space="preserve" x="1382.9" y="-300.95" font-family="Times,serif" font-size="14" text-anchor="middle">:domain:calendar</text>
        </g>
        <g class="edge">
            <title>:data:calendar-&gt;:domain:calendar</title>
            <path fill="none" stroke="#000" d="M780.89-370.85c118.44 12.56 388.26 41.18 522.75 55.44"/>
            <path stroke="#000" d="m1303.97-318.89 9.57 4.53-10.31 2.43z"/>
        </g>
        <g class="edge">
            <title>:core:mapper-&gt;:core:database</title>
            <path fill="none" stroke="#000" d="M664.05-301.94C562.63-296.1 348.61-281.24 169.9-252c-5.18.85-10.55 1.85-15.91 2.94"/>
            <path stroke="#000" d="m155.05-245.71-10.51-1.33 9.05-5.51z"/>
        </g>
        <g class="node">
            <title>:core:entity</title>
            <ellipse cx="1243.9" cy="-162" fill="none" stroke="#000" rx="52.89" ry="18"/>
            <text xml:space="preserve" x="1243.9" y="-156.95" font-family="Times,serif" font-size="14" text-anchor="middle">:core:entity</text>
        </g>
        <g class="edge">
            <title>:core:mapper-&gt;:core:entity</title>
            <path fill="none" stroke="#000" d="M782.13-302.6c125.72 5.63 410.41 21.47 442.77 50.6 16.61 14.95 20.67 40.55 20.97 60.47"/>
            <path stroke="#000" d="m1249.38-191.75-3.68 9.94-3.32-10.07z"/>
        </g>
        <g class="node">
            <title>:core:preferences</title>
            <ellipse cx="459.9" cy="-234" fill="none" stroke="#000" rx="74.38" ry="18"/>
            <text xml:space="preserve" x="459.9" y="-228.95" font-family="Times,serif" font-size="14" text-anchor="middle">:core:preferences</text>
        </g>
        <g class="edge">
            <title>:core:mapper-&gt;:core:preferences</title>
            <path fill="none" stroke="red" stroke-width="2" d="M679.18-293.36c-43.64 11.61-111 29.54-159.55 42.46"/>
            <path fill="red" stroke="red" stroke-width="2" d="m522.14-247.94-10.56-.81 8.76-5.96z"/>
        </g>
        <g class="node">
            <title>:core:service</title>
            <ellipse cx="805.9" cy="-234" fill="none" stroke="#000" rx="58" ry="18"/>
            <text xml:space="preserve" x="805.9" y="-228.95" font-family="Times,serif" font-size="14" text-anchor="middle">:core:service</text>
        </g>
        <g class="edge">
            <title>:core:mapper-&gt;:core:service</title>
            <path fill="none" stroke="#000" d="M742.15-288.76c10.61 8.94 23.97 20.21 35.72 30.12"/>
            <path stroke="#000" d="m779.92-261.49 5.39 9.12-9.9-3.77z"/>
        </g>
        <g class="node">
            <title>:core:holiday-database</title>
            <ellipse cx="272.9" cy="-234" fill="none" stroke="#000" rx="94.34" ry="18"/>
            <text xml:space="preserve" x="272.9" y="-228.95" font-family="Times,serif" font-size="14" text-anchor="middle">:core:holiday-database</text>
        </g>
        <g class="edge">
            <title>:core:mapper-&gt;:core:holiday-database</title>
            <path fill="none" stroke="#000" d="M670.12-297.08C602.25-286.86 480.74-268.44 376.9-252c-7.46 1.18-15.23 2.43-23 3.68"/>
            <path stroke="#000" d="m354.46-244.87-10.43-1.85 9.31-5.06z"/>
        </g>
        <g class="node">
            <title>:core:holiday-service</title>
            <ellipse cx="640.9" cy="-234" fill="none" stroke="#000" rx="88.71" ry="18"/>
            <text xml:space="preserve" x="640.9" y="-228.95" font-family="Times,serif" font-size="14" text-anchor="middle">:core:holiday-service</text>
        </g>
        <g class="edge">
            <title>:core:mapper-&gt;:core:holiday-service</title>
            <path fill="none" stroke="#000" d="M703.88-288.76c-10.33 8.81-23.3 19.89-34.78 29.69"/>
            <path stroke="#000" d="m671.7-256.69-9.88 3.83 5.34-9.16z"/>
        </g>
        <g class="node">
            <title>:core:ip-service</title>
            <ellipse cx="949.9" cy="-234" fill="none" stroke="#000" rx="68.24" ry="18"/>
            <text xml:space="preserve" x="949.9" y="-228.95" font-family="Times,serif" font-size="14" text-anchor="middle">:core:ip-service</text>
        </g>
        <g class="edge">
            <title>:core:mapper-&gt;:core:ip-service</title>
            <path fill="none" stroke="#000" d="M763.75-292.4c36.95 11.39 91.62 28.25 132.16 40.75"/>
            <path stroke="#000" d="m896.71-255.07 8.53 6.3-10.59.39z"/>
        </g>
        <g class="node">
            <title>:core:weather-service</title>
            <ellipse cx="1125.9" cy="-234" fill="none" stroke="#000" rx="90.25" ry="18"/>
            <text xml:space="preserve" x="1125.9" y="-228.95" font-family="Times,serif" font-size="14" text-anchor="middle">:core:weather-service</text>
        </g>
        <g class="edge">
            <title>:core:mapper-&gt;:core:weather-service</title>
            <path fill="none" stroke="#000" d="M773.94-296.13c69.29 12.03 193.7 33.64 274.53 47.68"/>
            <path stroke="#000" d="m1048.83-251.94 9.25 5.16-10.45 1.74z"/>
        </g>
        <g class="node">
            <title>:library:koin-room</title>
            <ellipse cx="291.9" cy="-162" fill="none" stroke="#000" rx="80.01" ry="18"/>
            <text xml:space="preserve" x="291.9" y="-156.95" font-family="Times,serif" font-size="14" text-anchor="middle">:library:koin-room</text>
        </g>
        <g class="edge">
            <title>:core:database-&gt;:library:koin-room</title>
            <path fill="none" stroke="#000" d="M134.96-219.34c29.88 10.73 71.79 25.77 104.79 37.62"/>
            <path stroke="#000" d="m240.91-185.02 8.23 6.67-10.59-.08z"/>
        </g>
        <g class="node">
            <title>:library:room-common</title>
            <ellipse cx="96.9" cy="-162" fill="none" stroke="#000" rx="96.9" ry="18"/>
            <text xml:space="preserve" x="96.9" y="-156.95" font-family="Times,serif" font-size="14" text-anchor="middle">:library:room-common</text>
        </g>
        <g class="edge">
            <title>:core:database-&gt;:library:room-common</title>
            <path fill="none" stroke="#000" d="M96.9-215.7v24.16"/>
            <path stroke="#000" d="m100.4-191.62-3.5 10-3.5-10z"/>
        </g>
        <g class="edge">
            <title>:domain:calendar-&gt;:core:entity</title>
            <path fill="none" stroke="#000" d="M1351.81-289.14c-16.37 9.35-36.08 22.25-50.91 37.14-18.05 18.13-33.34 42.9-43.53 61.71"/>
            <path stroke="#000" d="m1260.56-188.84-7.74 7.24 1.54-10.49z"/>
        </g>
        <g class="node">
            <title>:library:paging-common</title>
            <ellipse cx="1416.9" cy="-162" fill="none" stroke="#000" rx="102.02" ry="18"/>
            <text xml:space="preserve" x="1416.9" y="-156.95" font-family="Times,serif" font-size="14" text-anchor="middle">:library:paging-common</text>
        </g>
        <g class="edge">
            <title>:domain:calendar-&gt;:library:paging-common</title>
            <path fill="none" stroke="#000" d="M1421.22-290.28c16.56 8.51 34.28 21.01 43.68 38.28 7.65 14.05 5.76 21.07 0 36-3.97 10.29-10.96 19.83-18.41 27.89"/>
            <path stroke="#000" d="m1448.98-185.65-9.55 4.6 4.6-9.55z"/>
        </g>
        <g class="node">
            <title>:library:kotlinx-coroutines-core</title>
            <ellipse cx="1663.9" cy="-162" fill="none" stroke="#000" rx="127.1" ry="18"/>
            <text xml:space="preserve" x="1663.9" y="-156.95" font-family="Times,serif" font-size="14" text-anchor="middle">:library:kotlinx-coroutines-core</text>
        </g>
        <g class="edge">
            <title>:domain:calendar-&gt;:library:kotlinx-coroutines-core</title>
            <path fill="none" stroke="#000" d="M1414.05-289.26c50.31 25.42 149.58 75.59 206.68 104.44"/>
            <path stroke="#000" d="m1622.18-188 7.35 7.63-10.5-1.39z"/>
        </g>
        <g class="node">
            <title>:domain:account</title>
            <ellipse cx="1382.9" cy="-234" fill="none" stroke="#000" rx="72.85" ry="18"/>
            <text xml:space="preserve" x="1382.9" y="-228.95" font-family="Times,serif" font-size="14" text-anchor="middle">:domain:account</text>
        </g>
        <g class="edge">
            <title>:domain:calendar-&gt;:domain:account</title>
            <path fill="none" stroke="#000" d="M1382.9-287.7v24.16"/>
            <path stroke="#000" d="m1386.4-263.62-3.5 10-3.5-10z"/>
        </g>
        <g class="node">
            <title>:core:datastore</title>
            <ellipse cx="457.9" cy="-162" fill="none" stroke="#000" rx="65.17" ry="18"/>
            <text xml:space="preserve" x="457.9" y="-156.95" font-family="Times,serif" font-size="14" text-anchor="middle">:core:datastore</text>
        </g>
        <g class="edge">
            <title>:core:preferences-&gt;:core:datastore</title>
            <path fill="none" stroke="red" stroke-width="2" d="M459.41-215.7c-.21 7.29-.46 15.97-.69 24.16"/>
            <path fill="red" stroke="red" stroke-width="2" d="m462.26-193.03-3.78 9.9-3.22-10.1z"/>
        </g>
        <g class="node">
            <title>:core:ktor-client</title>
            <ellipse cx="877.9" cy="-162" fill="none" stroke="#000" rx="70.29" ry="18"/>
            <text xml:space="preserve" x="877.9" y="-156.95" font-family="Times,serif" font-size="14" text-anchor="middle">:core:ktor-client</text>
        </g>
        <g class="edge">
            <title>:core:service-&gt;:core:ktor-client</title>
            <path fill="none" stroke="#000" d="M822.97-216.41c8.96 8.72 20.12 19.56 30.03 29.2"/>
            <path stroke="#000" d="m855.15-190.01 4.73 9.48-9.61-4.46z"/>
        </g>
        <g class="edge">
            <title>:core:holiday-database-&gt;:library:koin-room</title>
            <path fill="none" stroke="#000" d="M277.6-215.7c2.02 7.46 4.44 16.38 6.71 24.73"/>
            <path stroke="#000" d="m287.62-192.13-.76 10.56-5.99-8.73z"/>
        </g>
        <g class="edge">
            <title>:core:holiday-database-&gt;:library:room-common</title>
            <path fill="none" stroke="#000" d="M233.4-217.29c-25.5 10.14-58.9 23.43-86.28 34.32"/>
            <path stroke="#000" d="m148.56-179.78-10.58.44 8-6.95z"/>
        </g>
        <g class="edge">
            <title>:core:holiday-service-&gt;:core:ktor-client</title>
            <path fill="none" stroke="#000" d="M689.72-218.58c38.52 11.38 92.28 27.25 132.48 39.13"/>
            <path stroke="#000" d="m823.1-182.84 8.6 6.19-10.58.53z"/>
        </g>
        <g class="node">
            <title>:core:coroutines</title>
            <ellipse cx="640.9" cy="-162" fill="none" stroke="#000" rx="70.29" ry="18"/>
            <text xml:space="preserve" x="640.9" y="-156.95" font-family="Times,serif" font-size="14" text-anchor="middle">:core:coroutines</text>
        </g>
        <g class="edge">
            <title>:core:holiday-service-&gt;:core:coroutines</title>
            <path fill="none" stroke="#000" d="M640.9-215.7v24.16"/>
            <path stroke="#000" d="m644.4-191.62-3.5 10-3.5-10z"/>
        </g>
        <g class="edge">
            <title>:core:ip-service-&gt;:core:ktor-client</title>
            <path fill="none" stroke="#000" d="M932.84-216.41c-8.97 8.72-20.13 19.56-30.04 29.2"/>
            <path stroke="#000" d="m905.54-184.99-9.61 4.46 4.73-9.48z"/>
        </g>
        <g class="edge">
            <title>:core:weather-service-&gt;:core:ktor-client</title>
            <path fill="none" stroke="#000" d="M1075.42-218.75c-40.83 11.52-98.28 27.74-140.71 39.72"/>
            <path stroke="#000" d="m935.75-175.69-10.57-.65 8.67-6.09z"/>
        </g>
        <g class="node">
            <title>:library:kotlinx-file</title>
            <ellipse cx="373.9" cy="-18" fill="none" stroke="#000" rx="82.06" ry="18"/>
            <text xml:space="preserve" x="373.9" y="-12.95" font-family="Times,serif" font-size="14" text-anchor="middle">:library:kotlinx-file</text>
        </g>
        <g class="edge">
            <title>:library:koin-room-&gt;:library:kotlinx-file</title>
            <path fill="none" stroke="#000" d="M301.79-143.87c14.04 24.31 39.88 69.05 56.51 97.86"/>
            <path stroke="#000" d="m361.25-47.91 1.97 10.41-8.03-6.91z"/>
        </g>
        <g class="edge">
            <title>:domain:account-&gt;:core:entity</title>
            <path fill="none" stroke="#000" d="M1351.71-217.29c-20.36 10.25-47.1 23.72-68.86 34.67"/>
            <path stroke="#000" d="m1284.48-179.52-10.5 1.37 7.35-7.62z"/>
        </g>
        <g class="edge">
            <title>:domain:account-&gt;:library:paging-common</title>
            <path fill="none" stroke="#000" d="M1391.31-215.7c3.7 7.63 8.15 16.78 12.29 25.3"/>
            <path stroke="#000" d="m1406.71-191.99 1.22 10.52-7.51-7.46z"/>
        </g>
        <g class="edge">
            <title>:domain:account-&gt;:library:kotlinx-coroutines-core</title>
            <path fill="none" stroke="#000" d="M1432.82-220.57c44.2 11.02 109.27 27.22 159.1 39.64"/>
            <path stroke="#000" d="m1592.62-184.36 8.86 5.81-10.55.98z"/>
        </g>
        <g class="node">
            <title>:library:koin-datastore</title>
            <ellipse cx="445.9" cy="-90" fill="none" stroke="#000" rx="93.32" ry="18"/>
            <text xml:space="preserve" x="445.9" y="-84.95" font-family="Times,serif" font-size="14" text-anchor="middle">:library:koin-datastore</text>
        </g>
        <g class="edge">
            <title>:core:datastore-&gt;:library:koin-datastore</title>
            <path fill="none" stroke="red" stroke-width="2" d="M454.94-143.7c-1.27 7.38-2.78 16.18-4.19 24.45"/>
            <path fill="red" stroke="red" stroke-width="2" d="m454.49-120.35-5.14 9.26-1.76-10.45z"/>
        </g>
        <g class="edge">
            <title>:library:koin-datastore-&gt;:library:kotlinx-file</title>
            <path fill="none" stroke="red" stroke-width="2" d="M428.47-72.05c-8.69 8.44-19.37 18.83-28.97 28.16"/>
            <path fill="red" stroke="red" stroke-width="2" d="m403.2-42.6-9.61 4.46 4.73-9.48z"/>
        </g>
    </g>
</svg>
