<svg xmlns="http://www.w3.org/2000/svg" width="644pt" height="260pt" viewBox="0 0 644 260">
    <g class="graph" transform="translate(4 256)">
        <title>G</title>
        <path fill="#fff" d="M-4 4v-260h643.9V4z"/>
        <g class="node">
            <title>:compose:memo</title>
            <ellipse cx="379.88" cy="-234" fill="none" stroke="#000" rx="73.36" ry="18"/>
            <text xml:space="preserve" x="379.88" y="-228.95" font-family="Times,serif" font-size="14" text-anchor="middle">:compose:memo</text>
        </g>
        <g class="node">
            <title>:compose:core</title>
            <ellipse cx="311.88" cy="-162" fill="none" stroke="#000" rx="65.17" ry="18"/>
            <text xml:space="preserve" x="311.88" y="-156.95" font-family="Times,serif" font-size="14" text-anchor="middle">:compose:core</text>
        </g>
        <g class="edge">
            <title>:compose:memo-&gt;:compose:core</title>
            <path fill="none" stroke="red" stroke-width="2" d="M363.42-216.05c-8.19 8.42-18.24 18.77-27.29 28.08"/>
            <path fill="red" stroke="red" stroke-width="2" d="m339.78-186.69-9.48 4.73 4.45-9.61z"/>
        </g>
        <g class="node">
            <title>:core:entity</title>
            <ellipse cx="447.88" cy="-162" fill="none" stroke="#000" rx="52.89" ry="18"/>
            <text xml:space="preserve" x="447.88" y="-156.95" font-family="Times,serif" font-size="14" text-anchor="middle">:core:entity</text>
        </g>
        <g class="edge">
            <title>:compose:memo-&gt;:core:entity</title>
            <path fill="none" stroke="#000" d="M396.34-216.05c8.31 8.55 18.53 19.08 27.68 28.49"/>
            <path stroke="#000" d="m426.53-190 4.45 9.61-9.48-4.74z"/>
        </g>
        <g class="node">
            <title>:library:compose-color</title>
            <ellipse cx="95.88" cy="-90" fill="none" stroke="#000" rx="95.88" ry="18"/>
            <text xml:space="preserve" x="95.88" y="-84.95" font-family="Times,serif" font-size="14" text-anchor="middle">:library:compose-color</text>
        </g>
        <g class="edge">
            <title>:compose:core-&gt;:library:compose-color</title>
            <path fill="none" stroke="#000" d="M270.74-147.67c-33.31 10.8-80.61 26.13-117.62 38.12"/>
            <path stroke="#000" d="m154.52-106.32-10.59-.25 8.43-6.41z"/>
        </g>
        <g class="node">
            <title>:library:kotlinx-datetime</title>
            <ellipse cx="311.88" cy="-90" fill="none" stroke="#000" rx="102.02" ry="18"/>
            <text xml:space="preserve" x="311.88" y="-84.95" font-family="Times,serif" font-size="14" text-anchor="middle">:library:kotlinx-datetime</text>
        </g>
        <g class="edge">
            <title>:compose:core-&gt;:library:kotlinx-datetime</title>
            <path fill="none" stroke="#000" d="M311.88-143.7v24.16"/>
            <path stroke="#000" d="m315.38-119.62-3.5 10-3.5-10z"/>
        </g>
        <g class="node">
            <title>:library:paging-compose</title>
            <ellipse cx="533.88" cy="-90" fill="none" stroke="#000" rx="102.02" ry="18"/>
            <text xml:space="preserve" x="533.88" y="-84.95" font-family="Times,serif" font-size="14" text-anchor="middle">:library:paging-compose</text>
        </g>
        <g class="edge">
            <title>:compose:core-&gt;:library:paging-compose</title>
            <path fill="none" stroke="red" stroke-width="2" d="M353.64-147.83c34.18 10.77 82.94 26.15 121.13 38.19"/>
            <path fill="red" stroke="red" stroke-width="2" d="m474.38-113.43 8.48 6.34-10.59.33z"/>
        </g>
        <g class="node">
            <title>:library:paging-common</title>
            <ellipse cx="533.88" cy="-18" fill="none" stroke="#000" rx="102.02" ry="18"/>
            <text xml:space="preserve" x="533.88" y="-12.95" font-family="Times,serif" font-size="14" text-anchor="middle">:library:paging-common</text>
        </g>
        <g class="edge">
            <title>:library:paging-compose-&gt;:library:paging-common</title>
            <path fill="none" stroke="red" stroke-width="2" d="M533.88-71.7v24.16"/>
            <path fill="red" stroke="red" stroke-width="2" d="m537.38-49.13-3.5 10-3.5-10z"/>
        </g>
    </g>
</svg>
