<svg xmlns="http://www.w3.org/2000/svg" width="1802pt" height="404pt" viewBox="0 0 1802 404">
    <g class="graph" transform="translate(4 400)">
        <title>G</title>
        <path fill="#fff" d="M-4 4v-404h1802.03V4z"/>
        <g class="node">
            <title>:data:credentials</title>
            <ellipse cx="945" cy="-378" fill="none" stroke="#000" rx="71.31" ry="18"/>
            <text xml:space="preserve" x="945" y="-372.95" font-family="Times,serif" font-size="14" text-anchor="middle">:data:credentials</text>
        </g>
        <g class="node">
            <title>:core:mapper</title>
            <ellipse cx="745" cy="-306" fill="none" stroke="#000" rx="60.05" ry="18"/>
            <text xml:space="preserve" x="745" y="-300.95" font-family="Times,serif" font-size="14" text-anchor="middle">:core:mapper</text>
        </g>
        <g class="edge">
            <title>:data:credentials-&gt;:core:mapper</title>
            <path fill="none" stroke="red" stroke-width="2" d="M904.53-362.83c-32.03 11.21-76.87 26.9-110.86 38.8"/>
            <path fill="red" stroke="red" stroke-width="2" d="M796.5-321.31h-10.6l8.29-6.61z"/>
        </g>
        <g class="node">
            <title>:core:preferences</title>
            <ellipse cx="1145" cy="-234" fill="none" stroke="#000" rx="74.38" ry="18"/>
            <text xml:space="preserve" x="1145" y="-228.95" font-family="Times,serif" font-size="14" text-anchor="middle">:core:preferences</text>
        </g>
        <g class="edge">
            <title>:data:credentials-&gt;:core:preferences</title>
            <path fill="none" stroke="#000" d="M967.95-360.71c35.52 25.22 103.97 73.82 144.57 102.64"/>
            <path stroke="#000" d="m1114.35-261.06 6.13 8.65-10.18-2.94z"/>
        </g>
        <g class="node">
            <title>:core:service</title>
            <ellipse cx="58" cy="-234" fill="none" stroke="#000" rx="58" ry="18"/>
            <text xml:space="preserve" x="58" y="-228.95" font-family="Times,serif" font-size="14" text-anchor="middle">:core:service</text>
        </g>
        <g class="edge">
            <title>:data:credentials-&gt;:core:service</title>
            <path fill="none" stroke="#000" d="M881.36-369.44C743.01-352.54 404.81-308.69 125-252c-4.3.87-8.75 1.84-13.21 2.87"/>
            <path stroke="#000" d="m112.76-245.77-10.53-1.09 8.91-5.72z"/>
        </g>
        <g class="node">
            <title>:domain:credentials</title>
            <ellipse cx="1368" cy="-306" fill="none" stroke="#000" rx="84.11" ry="18"/>
            <text xml:space="preserve" x="1368" y="-300.95" font-family="Times,serif" font-size="14" text-anchor="middle">:domain:credentials</text>
        </g>
        <g class="edge">
            <title>:data:credentials-&gt;:domain:credentials</title>
            <path fill="none" stroke="#000" d="M1003.38-367.34c75.08 12.42 205.65 34.03 288.47 47.74"/>
            <path stroke="#000" d="m1292.17-323.1 9.29 5.09-10.43 1.82z"/>
        </g>
        <g class="edge">
            <title>:core:mapper-&gt;:core:preferences</title>
            <path fill="none" stroke="red" stroke-width="2" d="M796.96-296.54C858.94-286.37 965.64-268.58 1057-252c6.66 1.21 13.58 2.49 20.5 3.8"/>
            <path fill="red" stroke="red" stroke-width="2" d="m1076.56-251.94 9.17 5.3-10.48 1.57z"/>
        </g>
        <g class="edge">
            <title>:core:mapper-&gt;:core:service</title>
            <path fill="none" stroke="#000" d="M685.62-303.15C574.74-298.97 329.01-286.36 125-252c-4.59.77-9.33 1.7-14.07 2.72"/>
            <path stroke="#000" d="m111.96-245.92-10.53-1.18 8.97-5.64z"/>
        </g>
        <g class="node">
            <title>:core:entity</title>
            <ellipse cx="1247" cy="-90" fill="none" stroke="#000" rx="52.89" ry="18"/>
            <text xml:space="preserve" x="1247" y="-84.95" font-family="Times,serif" font-size="14" text-anchor="middle">:core:entity</text>
        </g>
        <g class="edge">
            <title>:core:mapper-&gt;:core:entity</title>
            <path fill="none" stroke="#000" d="M802.63-300.5c71.55 6.65 188.23 21.37 221.37 48.5 40.12 32.82 5.59 73.21 44 108 31.68 28.69 78.22 41.88 115.9 47.94"/>
            <path stroke="#000" d="m1184.39-99.53 9.39 4.91-10.4 2.02z"/>
        </g>
        <g class="node">
            <title>:core:database</title>
            <ellipse cx="745" cy="-234" fill="none" stroke="#000" rx="63.63" ry="18"/>
            <text xml:space="preserve" x="745" y="-228.95" font-family="Times,serif" font-size="14" text-anchor="middle">:core:database</text>
        </g>
        <g class="edge">
            <title>:core:mapper-&gt;:core:database</title>
            <path fill="none" stroke="#000" d="M745-287.7v24.16"/>
            <path stroke="#000" d="m748.51-263.62-3.51 10-3.49-10z"/>
        </g>
        <g class="node">
            <title>:core:holiday-database</title>
            <ellipse cx="921" cy="-234" fill="none" stroke="#000" rx="94.34" ry="18"/>
            <text xml:space="preserve" x="921" y="-228.95" font-family="Times,serif" font-size="14" text-anchor="middle">:core:holiday-database</text>
        </g>
        <g class="edge">
            <title>:core:mapper-&gt;:core:holiday-database</title>
            <path fill="none" stroke="#000" d="M780.2-291c26.09 10.37 62 24.66 91.03 36.2"/>
            <path stroke="#000" d="m872.17-258.19 8 6.95-10.58-.44z"/>
        </g>
        <g class="node">
            <title>:core:holiday-service</title>
            <ellipse cx="575" cy="-234" fill="none" stroke="#000" rx="88.71" ry="18"/>
            <text xml:space="preserve" x="575" y="-228.95" font-family="Times,serif" font-size="14" text-anchor="middle">:core:holiday-service</text>
        </g>
        <g class="edge">
            <title>:core:mapper-&gt;:core:holiday-service</title>
            <path fill="none" stroke="#000" d="M710.6-290.83c-25.12 10.34-59.51 24.5-87.37 35.97"/>
            <path stroke="#000" d="m624.88-251.75-10.58.57 7.92-7.05z"/>
        </g>
        <g class="node">
            <title>:core:ip-service</title>
            <ellipse cx="202" cy="-234" fill="none" stroke="#000" rx="68.24" ry="18"/>
            <text xml:space="preserve" x="202" y="-228.95" font-family="Times,serif" font-size="14" text-anchor="middle">:core:ip-service</text>
        </g>
        <g class="edge">
            <title>:core:mapper-&gt;:core:ip-service</title>
            <path fill="none" stroke="#000" d="M687.34-300.39C599.04-292.88 425.18-276.38 279-252c-5.29.88-10.76 1.89-16.24 2.97"/>
            <path stroke="#000" d="m263.54-245.62-10.5-1.42 9.1-5.43z"/>
        </g>
        <g class="node">
            <title>:core:weather-service</title>
            <ellipse cx="378" cy="-234" fill="none" stroke="#000" rx="90.25" ry="18"/>
            <text xml:space="preserve" x="378" y="-228.95" font-family="Times,serif" font-size="14" text-anchor="middle">:core:weather-service</text>
        </g>
        <g class="edge">
            <title>:core:mapper-&gt;:core:weather-service</title>
            <path fill="none" stroke="#000" d="M695.51-295.56C632.98-283.63 524.8-263 452.33-249.18"/>
            <path stroke="#000" d="m453.43-245.82-10.48-1.57 9.16-5.31z"/>
        </g>
        <g class="node">
            <title>:core:datastore</title>
            <ellipse cx="1142" cy="-162" fill="none" stroke="#000" rx="65.17" ry="18"/>
            <text xml:space="preserve" x="1142" y="-156.95" font-family="Times,serif" font-size="14" text-anchor="middle">:core:datastore</text>
        </g>
        <g class="edge">
            <title>:core:preferences-&gt;:core:datastore</title>
            <path fill="none" stroke="red" stroke-width="2" d="m1144.26-215.7-1.03 24.16"/>
            <path fill="red" stroke="red" stroke-width="2" d="m1146.79-192.97-3.92 9.84-3.07-10.14z"/>
        </g>
        <g class="node">
            <title>:core:ktor-client</title>
            <ellipse cx="290" cy="-162" fill="none" stroke="#000" rx="70.29" ry="18"/>
            <text xml:space="preserve" x="290" y="-156.95" font-family="Times,serif" font-size="14" text-anchor="middle">:core:ktor-client</text>
        </g>
        <g class="edge">
            <title>:core:service-&gt;:core:ktor-client</title>
            <path fill="none" stroke="#000" d="M98.68-220.73c37.82 11.41 94.45 28.5 136.29 41.13"/>
            <path stroke="#000" d="m235.8-183.01 8.57 6.24-10.59.46z"/>
        </g>
        <g class="edge">
            <title>:domain:credentials-&gt;:core:entity</title>
            <path fill="none" stroke="#000" d="M1357.06-287.96c-6.55 10.31-14.95 23.79-22.06 35.96-27.13 46.46-56.77 101.7-73.79 133.91"/>
            <path stroke="#000" d="m1264.41-116.65-7.76 7.21 1.56-10.48z"/>
        </g>
        <g class="node">
            <title>:library:paging-common</title>
            <ellipse cx="1692" cy="-90" fill="none" stroke="#000" rx="102.02" ry="18"/>
            <text xml:space="preserve" x="1692" y="-84.95" font-family="Times,serif" font-size="14" text-anchor="middle">:library:paging-common</text>
        </g>
        <g class="edge">
            <title>:domain:credentials-&gt;:library:paging-common</title>
            <path fill="none" stroke="#000" d="M1442.47-297.3c65.39 8.11 154.22 22.87 181.53 45.3 40.77 33.48 57.53 95.74 64.08 132.25"/>
            <path stroke="#000" d="m1691.53-120.37-1.84 10.44-5.07-9.31z"/>
        </g>
        <g class="node">
            <title>:library:kotlinx-coroutines-core</title>
            <ellipse cx="1445" cy="-90" fill="none" stroke="#000" rx="127.1" ry="18"/>
            <text xml:space="preserve" x="1445" y="-84.95" font-family="Times,serif" font-size="14" text-anchor="middle">:library:kotlinx-coroutines-core</text>
        </g>
        <g class="edge">
            <title>:domain:credentials-&gt;:library:kotlinx-coroutines-core</title>
            <path fill="none" stroke="#000" d="M1356.5-287.74c-10.55 18.08-23.3 47.2-14.5 71.74 14.54 40.48 48.48 77.22 73.44 100.23"/>
            <path stroke="#000" d="m1417.62-118.52 5.11 9.29-9.78-4.08z"/>
        </g>
        <g class="node">
            <title>:domain:sync</title>
            <ellipse cx="1554" cy="-234" fill="none" stroke="#000" rx="61.08" ry="18"/>
            <text xml:space="preserve" x="1554" y="-228.95" font-family="Times,serif" font-size="14" text-anchor="middle">:domain:sync</text>
        </g>
        <g class="edge">
            <title>:domain:credentials-&gt;:domain:sync</title>
            <path fill="none" stroke="#000" d="M1408.36-289.81c28.93 10.89 67.99 25.59 98.38 37.02"/>
            <path stroke="#000" d="m1507.96-256.07 8.13 6.8-10.59-.25z"/>
        </g>
        <g class="node">
            <title>:domain:push</title>
            <ellipse cx="1413" cy="-234" fill="none" stroke="#000" rx="61.59" ry="18"/>
            <text xml:space="preserve" x="1413" y="-228.95" font-family="Times,serif" font-size="14" text-anchor="middle">:domain:push</text>
        </g>
        <g class="edge">
            <title>:domain:credentials-&gt;:domain:push</title>
            <path fill="none" stroke="#000" d="M1379.13-287.7c5.07 7.89 11.18 17.4 16.81 26.15"/>
            <path stroke="#000" d="m1398.73-263.68 2.46 10.3-8.35-6.52z"/>
        </g>
        <g class="node">
            <title>:library:koin-room</title>
            <ellipse cx="726" cy="-162" fill="none" stroke="#000" rx="80.01" ry="18"/>
            <text xml:space="preserve" x="726" y="-156.95" font-family="Times,serif" font-size="14" text-anchor="middle">:library:koin-room</text>
        </g>
        <g class="edge">
            <title>:core:database-&gt;:library:koin-room</title>
            <path fill="none" stroke="#000" d="M740.31-215.7c-2.03 7.46-4.45 16.38-6.71 24.73"/>
            <path stroke="#000" d="m737.04-190.3-6 8.73-.75-10.56z"/>
        </g>
        <g class="node">
            <title>:library:room-common</title>
            <ellipse cx="921" cy="-162" fill="none" stroke="#000" rx="96.9" ry="18"/>
            <text xml:space="preserve" x="921" y="-156.95" font-family="Times,serif" font-size="14" text-anchor="middle">:library:room-common</text>
        </g>
        <g class="edge">
            <title>:core:database-&gt;:library:room-common</title>
            <path fill="none" stroke="#000" d="M780.62-218.83c25.83 10.27 61.13 24.31 89.86 35.74"/>
            <path stroke="#000" d="m871.74-186.36 8 6.95-10.59-.45z"/>
        </g>
        <g class="edge">
            <title>:core:holiday-database-&gt;:library:koin-room</title>
            <path fill="none" stroke="#000" d="M878.21-217.64c-29.48 10.59-68.84 24.71-100.14 35.95"/>
            <path stroke="#000" d="m779.38-178.44-10.59.08 8.23-6.67z"/>
        </g>
        <g class="edge">
            <title>:core:holiday-database-&gt;:library:room-common</title>
            <path fill="none" stroke="#000" d="M921-215.7v24.16"/>
            <path stroke="#000" d="m924.51-191.62-3.51 10-3.49-10z"/>
        </g>
        <g class="edge">
            <title>:core:holiday-service-&gt;:core:ktor-client</title>
            <path fill="none" stroke="#000" d="M520.05-219.5c-48.57 11.93-119.3 29.3-169.49 41.63"/>
            <path stroke="#000" d="m351.56-174.52-10.54-1.01 8.87-5.78z"/>
        </g>
        <g class="node">
            <title>:core:coroutines</title>
            <ellipse cx="558" cy="-162" fill="none" stroke="#000" rx="70.29" ry="18"/>
            <text xml:space="preserve" x="558" y="-156.95" font-family="Times,serif" font-size="14" text-anchor="middle">:core:coroutines</text>
        </g>
        <g class="edge">
            <title>:core:holiday-service-&gt;:core:coroutines</title>
            <path fill="none" stroke="#000" d="M570.8-215.7c-1.79 7.38-3.92 16.18-5.93 24.45"/>
            <path stroke="#000" d="m568.28-190.47-5.76 8.89-1.05-10.54z"/>
        </g>
        <g class="edge">
            <title>:core:ip-service-&gt;:core:ktor-client</title>
            <path fill="none" stroke="#000" d="M222.86-216.41c11.18 8.89 25.14 20 37.44 29.78"/>
            <path stroke="#000" d="m262.47-189.38 5.65 8.97-10.01-3.49z"/>
        </g>
        <g class="edge">
            <title>:core:weather-service-&gt;:core:ktor-client</title>
            <path fill="none" stroke="#000" d="M356.7-216.05c-11.1 8.83-24.87 19.78-37 29.43"/>
            <path stroke="#000" d="m322-183.98-10.01 3.49 5.65-8.96z"/>
        </g>
        <g class="node">
            <title>:library:koin-datastore</title>
            <ellipse cx="1024" cy="-90" fill="none" stroke="#000" rx="93.32" ry="18"/>
            <text xml:space="preserve" x="1024" y="-84.95" font-family="Times,serif" font-size="14" text-anchor="middle">:library:koin-datastore</text>
        </g>
        <g class="edge">
            <title>:core:datastore-&gt;:library:koin-datastore</title>
            <path fill="none" stroke="red" stroke-width="2" d="M1115.23-145.12c-15.8 9.38-36.05 21.39-53.46 31.72"/>
            <path fill="red" stroke="red" stroke-width="2" d="m1064.9-111.19-10.39 2.09 6.81-8.11z"/>
        </g>
        <g class="edge">
            <title>:domain:sync-&gt;:core:entity</title>
            <path fill="none" stroke="#000" d="M1516.03-219.46c-27.53 10.12-65.48 24.7-98.03 39.46-47.37 21.48-100.25 49.68-134.49 68.53"/>
            <path stroke="#000" d="m1285.28-108.45-10.44 1.78 7.05-7.91z"/>
        </g>
        <g class="edge">
            <title>:domain:sync-&gt;:library:paging-common</title>
            <path fill="none" stroke="#000" d="M1570.11-216.43c24.07 24.77 69.61 71.63 97.7 100.53"/>
            <path stroke="#000" d="m1670.07-118.6 4.45 9.61-9.47-4.73z"/>
        </g>
        <g class="edge">
            <title>:domain:sync-&gt;:library:kotlinx-coroutines-core</title>
            <path fill="none" stroke="#000" d="M1567.59-215.96c13.33 18.94 29.62 49.78 14.41 71.96-11.26 16.43-28.4 27.77-46.78 35.59"/>
            <path stroke="#000" d="m1536.59-105.19-10.59.34 8.07-6.87z"/>
        </g>
        <g class="node">
            <title>:domain:account</title>
            <ellipse cx="1500" cy="-162" fill="none" stroke="#000" rx="72.85" ry="18"/>
            <text xml:space="preserve" x="1500" y="-156.95" font-family="Times,serif" font-size="14" text-anchor="middle">:domain:account</text>
        </g>
        <g class="edge">
            <title>:domain:sync-&gt;:domain:account</title>
            <path fill="none" stroke="#000" d="M1540.93-216.05c-6.3 8.16-13.99 18.14-21 27.23"/>
            <path stroke="#000" d="m1522.76-186.77-8.88 5.78 3.34-10.05z"/>
        </g>
        <g class="edge">
            <title>:domain:push-&gt;:core:entity</title>
            <path fill="none" stroke="#000" d="M1393.64-216.43c-29.44 25.18-85.58 73.2-119.21 101.97"/>
            <path stroke="#000" d="m1277.02-112.07-9.88 3.84 5.33-9.16z"/>
        </g>
        <g class="edge">
            <title>:domain:push-&gt;:library:paging-common</title>
            <path fill="none" stroke="#000" d="M1458.52-221.59c42.66 11.2 102.86 28.47 123.48 41.59 18.32 11.65 16.63 21.76 33 36 12.42 10.8 27.08 21.36 40.26 30.17"/>
            <path stroke="#000" d="m1656.83-116.98 6.44 8.41-10.28-2.56z"/>
        </g>
        <g class="edge">
            <title>:domain:push-&gt;:library:kotlinx-coroutines-core</title>
            <path fill="none" stroke="#000" d="M1411.89-215.6c-.69 18.18-.42 47.4 6.11 71.6 2.36 8.73 6.27 17.7 10.39 25.71"/>
            <path stroke="#000" d="m1431.34-120.18 1.74 10.45-7.88-7.08z"/>
        </g>
        <g class="edge">
            <title>:domain:push-&gt;:domain:account</title>
            <path fill="none" stroke="#000" d="M1433.18-216.76c11.15 8.97 25.2 20.27 37.54 30.2"/>
            <path stroke="#000" d="m1472.56-189.58 5.59 9-9.98-3.54z"/>
        </g>
        <g class="node">
            <title>:library:kotlinx-file</title>
            <ellipse cx="845" cy="-18" fill="none" stroke="#000" rx="82.06" ry="18"/>
            <text xml:space="preserve" x="845" y="-12.95" font-family="Times,serif" font-size="14" text-anchor="middle">:library:kotlinx-file</text>
        </g>
        <g class="edge">
            <title>:library:koin-room-&gt;:library:kotlinx-file</title>
            <path fill="none" stroke="#000" d="M740.36-143.87c20.64 24.63 58.86 70.23 82.95 98.99"/>
            <path stroke="#000" d="m825.89-47.26 3.74 9.91-9.11-5.42z"/>
        </g>
        <g class="edge">
            <title>:library:koin-datastore-&gt;:library:kotlinx-file</title>
            <path fill="none" stroke="red" stroke-width="2" d="M983.83-73.29c-26.5 10.36-61.4 24.01-89.58 35.03"/>
            <path fill="red" stroke="red" stroke-width="2" d="m897.22-35.66-10.59.38 8.04-6.9z"/>
        </g>
        <g class="edge">
            <title>:domain:account-&gt;:core:entity</title>
            <path fill="none" stroke="#000" d="M1452.71-147.92c-44.03 12.19-109.5 30.3-154.7 42.81"/>
            <path stroke="#000" d="m1299.02-101.76-10.58-.71 8.71-6.04z"/>
        </g>
        <g class="edge">
            <title>:domain:account-&gt;:library:paging-common</title>
            <path fill="none" stroke="#000" d="M1539.79-146.5c28.49 10.39 67.19 24.5 98.43 35.89"/>
            <path stroke="#000" d="m1639.32-113.93 8.19 6.71-10.59-.14z"/>
        </g>
        <g class="edge">
            <title>:domain:account-&gt;:library:kotlinx-coroutines-core</title>
            <path fill="none" stroke="#000" d="M1486.69-144.05c-6.32 8.04-14.02 17.85-21.08 26.82"/>
            <path stroke="#000" d="m1468.44-115.17-8.93 5.7 3.43-10.02z"/>
        </g>
    </g>
</svg>
