<svg xmlns="http://www.w3.org/2000/svg" width="812" height="260pt" viewBox="0 0 609 260">
    <g class="graph" transform="translate(4 256)">
        <title>G</title>
        <path fill="#fff" d="M-4 4v-260h608.99V4z"/>
        <g class="node">
            <title>:domain:credentials</title>
            <ellipse cx="328.89" cy="-234" fill="none" stroke="#000" rx="84.11" ry="18"/>
            <text xml:space="preserve" x="328.89" y="-228.95" font-family="Times,serif" font-size="14" text-anchor="middle">:domain:credentials</text>
        </g>
        <g class="node">
            <title>:core:entity</title>
            <ellipse cx="52.89" cy="-18" fill="none" stroke="#000" rx="52.89" ry="18"/>
            <text xml:space="preserve" x="52.89" y="-12.95" font-family="Times,serif" font-size="14" text-anchor="middle">:core:entity</text>
        </g>
        <g class="edge">
            <title>:domain:credentials-&gt;:core:entity</title>
            <path fill="none" stroke="#000" d="M246.42-230c-43.07 5.57-94.05 18.96-129.53 50-39.36 34.43-54.78 96.35-60.62 132.54"/>
            <path stroke="#000" d="m59.76-47.14-4.91 9.39-2.02-10.4z"/>
        </g>
        <g class="node">
            <title>:library:paging-common</title>
            <ellipse cx="226.89" cy="-18" fill="none" stroke="#000" rx="102.02" ry="18"/>
            <text xml:space="preserve" x="226.89" y="-12.95" font-family="Times,serif" font-size="14" text-anchor="middle">:library:paging-common</text>
        </g>
        <g class="edge">
            <title>:domain:credentials-&gt;:library:paging-common</title>
            <path fill="none" stroke="#000" d="M361.73-216.99c14.17 8.79 29.29 21.16 37.16 36.99 7.12 14.33 5.91 21.13 0 36-20.37 51.23-75.51 85.23-117.92 104.66"/>
            <path stroke="#000" d="m282.44-36.16-10.56.84 7.73-7.24z"/>
        </g>
        <g class="node">
            <title>:library:kotlinx-coroutines-core</title>
            <ellipse cx="473.89" cy="-18" fill="none" stroke="#000" rx="127.1" ry="18"/>
            <text xml:space="preserve" x="473.89" y="-12.95" font-family="Times,serif" font-size="14" text-anchor="middle">:library:kotlinx-coroutines-core</text>
        </g>
        <g class="edge">
            <title>:domain:credentials-&gt;:library:kotlinx-coroutines-core</title>
            <path fill="none" stroke="#000" d="M365.5-217.37c17 8.83 36.3 21.34 49.39 37.37 32.17 39.39 47.68 97.92 54.44 132.49"/>
            <path stroke="#000" d="m472.74-48.31-1.65 10.47-5.24-9.21z"/>
        </g>
        <g class="node">
            <title>:domain:sync</title>
            <ellipse cx="328.89" cy="-162" fill="none" stroke="#000" rx="61.08" ry="18"/>
            <text xml:space="preserve" x="328.89" y="-156.95" font-family="Times,serif" font-size="14" text-anchor="middle">:domain:sync</text>
        </g>
        <g class="edge">
            <title>:domain:credentials-&gt;:domain:sync</title>
            <path fill="none" stroke="red" stroke-width="2" d="M328.89-215.7v24.16"/>
            <path fill="red" stroke="red" stroke-width="2" d="m332.39-193.13-3.5 10-3.5-10z"/>
        </g>
        <g class="node">
            <title>:domain:push</title>
            <ellipse cx="187.89" cy="-162" fill="none" stroke="#000" rx="61.59" ry="18"/>
            <text xml:space="preserve" x="187.89" y="-156.95" font-family="Times,serif" font-size="14" text-anchor="middle">:domain:push</text>
        </g>
        <g class="edge">
            <title>:domain:credentials-&gt;:domain:push</title>
            <path fill="none" stroke="#000" d="M296.54-216.94c-20.26 10.06-46.54 23.11-68.18 33.85"/>
            <path stroke="#000" d="m230.02-180.01-10.51 1.31 7.4-7.58z"/>
        </g>
        <g class="edge">
            <title>:domain:sync-&gt;:core:entity</title>
            <path fill="none" stroke="#000" d="M283.96-149.35c-50.25 13.24-126.2 33.98-138.07 41.35-18.45 11.44-17.51 20.79-33 36-10.13 9.94-21.72 20.38-32 29.34"/>
            <path stroke="#000" d="m83.27-40.09-9.86 3.89 5.29-9.18z"/>
        </g>
        <g class="edge">
            <title>:domain:sync-&gt;:library:paging-common</title>
            <path fill="none" stroke="#000" d="M329.04-143.73c-.65 19.16-4.21 50.18-19.15 71.73-8.85 12.76-21.88 23.14-34.99 31.22"/>
            <path stroke="#000" d="m276.64-37.75-10.41 1.95 6.93-8.02z"/>
        </g>
        <g class="edge">
            <title>:domain:sync-&gt;:library:kotlinx-coroutines-core</title>
            <path fill="none" stroke="#000" d="M345.8-144.43c25.3 24.77 73.15 71.63 102.66 100.53"/>
            <path stroke="#000" d="m450.85-46.46 4.7 9.5-9.6-4.5z"/>
        </g>
        <g class="node">
            <title>:domain:account</title>
            <ellipse cx="227.89" cy="-90" fill="none" stroke="#000" rx="72.85" ry="18"/>
            <text xml:space="preserve" x="227.89" y="-84.95" font-family="Times,serif" font-size="14" text-anchor="middle">:domain:account</text>
        </g>
        <g class="edge">
            <title>:domain:sync-&gt;:domain:account</title>
            <path fill="none" stroke="red" stroke-width="2" d="M305.72-144.94c-13.29 9.2-30.18 20.91-44.83 31.06"/>
            <path fill="red" stroke="red" stroke-width="2" d="m264.35-112.01-10.21 2.82 6.22-8.58z"/>
        </g>
        <g class="edge">
            <title>:domain:push-&gt;:core:entity</title>
            <path fill="none" stroke="#000" d="M171.87-144.15c-23.67 24.9-68.14 71.68-95.5 100.45"/>
            <path stroke="#000" d="m78.94-41.32-9.43 4.84 4.35-9.66z"/>
        </g>
        <g class="edge">
            <title>:domain:push-&gt;:library:paging-common</title>
            <path fill="none" stroke="#000" d="M170.35-144.33c-16.81 18.09-37.79 47.68-24.46 72.33 7.07 13.08 18.92 23.44 31.41 31.41"/>
            <path stroke="#000" d="m178.74-43.8 6.86 8.08-10.4-2.04z"/>
        </g>
        <g class="edge">
            <title>:domain:push-&gt;:library:kotlinx-coroutines-core</title>
            <path fill="none" stroke="#000" d="M222.7-146.83c24.6 10.25 58.23 24.72 87.19 38.83 43.54 21.22 92.17 48.02 125.09 66.64"/>
            <path stroke="#000" d="m436.38-44.59 6.97 7.98-10.43-1.9z"/>
        </g>
        <g class="edge">
            <title>:domain:push-&gt;:domain:account</title>
            <path fill="none" stroke="#000" d="M197.57-144.05c4.45 7.79 9.85 17.23 14.84 25.97"/>
            <path stroke="#000" d="m215.34-120.01 1.92 10.42-8-6.95z"/>
        </g>
        <g class="edge">
            <title>:domain:account-&gt;:core:entity</title>
            <path fill="none" stroke="red" stroke-width="2" d="M190.77-74.15c-27.49 10.99-65.04 26.01-94.02 37.6"/>
            <path fill="red" stroke="red" stroke-width="2" d="m99.5-33.88-10.58.47 7.98-6.97z"/>
        </g>
        <g class="edge">
            <title>:domain:account-&gt;:library:paging-common</title>
            <path fill="none" stroke="#000" d="M227.64-71.7c-.1 7.29-.23 15.97-.35 24.16"/>
            <path stroke="#000" d="m230.8-47.57-3.65 9.95-3.35-10.05z"/>
        </g>
        <g class="edge">
            <title>:domain:account-&gt;:library:kotlinx-coroutines-core</title>
            <path fill="none" stroke="#000" d="M274.45-75.75c37.72 10.73 91.33 25.99 133.47 37.98"/>
            <path stroke="#000" d="m408.81-41.16 8.66 6.11-10.58.62z"/>
        </g>
    </g>
</svg>
